<svg width="109" height="144" viewBox="0 0 109 144" fill="none" xmlns="http://www.w3.org/2000/svg">
<g filter="url(#filter0_d_293_1290)">
<path d="M54.5163 15C32.7501 15.0016 15.0016 32.7261 15 54.4923C14.9995 67.8212 22.7167 77.3724 26.4933 84.9256C26.5403 85.018 26.5908 85.1085 26.6446 85.197L51.1637 126.078C51.5274 126.681 52.0407 127.18 52.6539 127.526C53.2671 127.873 53.9594 128.055 54.6636 128.055C55.3678 128.055 56.0601 127.873 56.6733 127.526C57.2865 127.18 57.7998 126.681 58.1635 126.078L82.6906 85.197C82.7445 85.1085 82.795 85.018 82.842 84.9256C86.6711 77.2674 93.9793 67.5379 94 54.4923C93.9984 32.7261 76.2825 15.0016 54.5163 15ZM54.5163 23.1809C71.8659 23.1822 85.8262 37.1427 85.8275 54.4923C85.8106 64.3688 79.8806 72.549 75.5395 81.2142L54.6679 116.029L33.7884 81.2781L33.756 81.2148C29.3613 72.4466 23.172 64.5592 23.1725 54.4929C23.1738 37.1433 37.1667 23.1822 54.5163 23.1809ZM54.5163 33.916C43.196 33.916 33.9081 43.172 33.9081 54.4923C33.9081 65.8126 43.196 75.0606 54.5163 75.0606C65.8366 75.0606 75.0846 65.8126 75.0846 54.4923C75.0846 43.172 65.8366 33.916 54.5163 33.916ZM54.5163 38.3271C61.4196 38.3271 70.6735 43.8271 70.6735 54.4923C70.6735 65.1574 61.4196 70.6813 54.5163 70.6814C47.613 70.6814 38.3272 65.1574 38.3272 54.4923C38.3272 43.8271 47.613 38.3271 54.5163 38.3271Z" fill="#D21212"/>
</g>
<defs>
<filter id="filter0_d_293_1290" x="0" y="0" width="109" height="143.055" filterUnits="userSpaceOnUse" color-interpolation-filters="sRGB">
<feFlood flood-opacity="0" result="BackgroundImageFix"/>
<feColorMatrix in="SourceAlpha" type="matrix" values="0 0 0 0 0 0 0 0 0 0 0 0 0 0 0 0 0 0 127 0" result="hardAlpha"/>
<feOffset/>
<feGaussianBlur stdDeviation="7.5"/>
<feComposite in2="hardAlpha" operator="out"/>
<feColorMatrix type="matrix" values="0 0 0 0 0.991667 0 0 0 0 0.0123958 0 0 0 0 0.0123958 0 0 0 0.7 0"/>
<feBlend mode="normal" in2="BackgroundImageFix" result="effect1_dropShadow_293_1290"/>
<feBlend mode="normal" in="SourceGraphic" in2="effect1_dropShadow_293_1290" result="shape"/>
</filter>
</defs>
</svg>
