<svg width="270" height="391" viewBox="0 0 270 391" fill="none" xmlns="http://www.w3.org/2000/svg">
<path d="M135.056 0C60.6651 0.00566033 0.00559552 61.2856 9.70574e-08 136.539C-0.00184745 182.622 26.3737 215.644 39.281 241.758C39.4416 242.078 39.614 242.391 39.7981 242.697L123.598 384.038C124.84 386.123 126.595 387.848 128.691 389.045C130.786 390.242 133.152 390.871 135.559 390.871C137.966 390.871 140.332 390.242 142.428 389.045C144.524 387.848 146.278 386.123 147.521 384.038L231.348 242.697C231.532 242.391 231.705 242.078 231.865 241.758C244.952 215.281 269.929 181.643 270 136.539C269.994 61.2856 209.447 0.00566033 135.056 0ZM135.056 28.2845C194.352 28.289 242.064 76.5553 242.069 136.539C242.011 170.686 221.744 198.968 206.907 228.927L135.574 349.296L64.2134 229.147L64.1026 228.929C49.083 198.614 27.9298 171.344 27.9312 136.541C27.9356 76.5573 75.7597 28.289 135.056 28.2845ZM135.056 65.3994C96.3661 65.3994 64.6226 97.4007 64.6226 136.539C64.6225 175.678 96.3661 207.651 135.056 207.651C173.745 207.651 205.352 175.678 205.352 136.539C205.352 97.4007 173.745 65.3994 135.056 65.3994ZM135.056 80.6503C158.649 80.6503 190.276 99.6657 190.276 136.539C190.276 173.413 158.649 192.511 135.056 192.511C111.462 192.511 79.7258 173.413 79.726 136.539C79.726 99.6657 111.462 80.6503 135.056 80.6503Z" fill="#D21212"/>
</svg>
