<svg width="41" height="35" viewBox="0 0 41 35" fill="none" xmlns="http://www.w3.org/2000/svg">
<path d="M20.5 35C20.2889 35.0002 20.0799 34.9603 19.885 34.8826C19.69 34.8048 19.5129 34.6908 19.3639 34.547L4.02402 19.7894C-0.674675 15.269 -0.674675 7.91342 4.02402 3.39307C8.53632 -0.951049 15.7692 -1.12574 20.5 2.87981C25.2276 -1.1211 32.4605 -0.952595 36.976 3.39307C41.6747 7.91342 41.6747 15.2706 36.976 19.7894L21.6361 34.547C21.4871 34.6908 21.31 34.8048 21.115 34.8826C20.9201 34.9603 20.711 35.0002 20.5 35ZM12.5472 3.09161C11.3865 3.08965 10.2368 3.30824 9.16406 3.73484C8.09134 4.16143 7.11676 4.78763 6.29624 5.57749C4.64081 7.17306 3.71106 9.33532 3.71106 11.5897C3.71106 13.8441 4.64081 16.0063 6.29624 17.6019L20.5 31.2665L34.7038 17.6019C36.3592 16.0063 37.2889 13.8441 37.2889 11.5897C37.2889 9.33532 36.3592 7.17306 34.7038 5.57749C33.0452 3.9849 30.7977 3.09044 28.4544 3.09044C26.1111 3.09044 23.8635 3.9849 22.205 5.57749L21.6361 6.12476C21.487 6.26845 21.3099 6.38244 21.115 6.46022C20.92 6.538 20.711 6.57803 20.5 6.57803C20.289 6.57803 20.08 6.538 19.885 6.46022C19.6901 6.38244 19.513 6.26845 19.3639 6.12476L18.795 5.57749C17.9752 4.78766 17.0011 4.16144 15.929 3.73484C14.8568 3.30823 13.7075 3.08964 12.5472 3.09161Z" fill="url(#paint0_linear_293_1274)"/>
<defs>
<linearGradient id="paint0_linear_293_1274" x1="20.5" y1="-1.8759e-07" x2="26.0457" y2="34.3141" gradientUnits="userSpaceOnUse">
<stop stop-color="#FD0303"/>
<stop offset="1" stop-color="#341E1E"/>
</linearGradient>
</defs>
</svg>
