<svg width="67" height="59" viewBox="0 0 67 59" fill="none" xmlns="http://www.w3.org/2000/svg">
<path d="M33.5 59C33.1465 59.0004 32.7964 58.9331 32.4698 58.802C32.1432 58.671 31.8466 58.4788 31.597 58.2364L5.90274 33.3593C-1.96758 25.7393 -1.96758 13.3398 5.90274 5.71974C13.4608 -1.6032 25.5758 -1.89768 33.5 4.85454C41.4188 -1.88986 53.5338 -1.6058 61.0973 5.71974C68.9676 13.3398 68.9676 25.7419 61.0973 33.3593L35.403 58.2364C35.1534 58.4788 34.8567 58.671 34.5302 58.802C34.2036 58.9331 33.8535 59.0004 33.5 59ZM20.1791 5.21157C18.2349 5.20827 16.3091 5.57675 14.5123 6.29587C12.7155 7.01498 11.0831 8.07058 9.7087 9.40206C6.93586 12.0917 5.37852 15.7367 5.37852 19.5369C5.37852 23.3371 6.93586 26.9821 9.7087 29.6718L33.5 52.7064L57.2913 29.6718C60.0641 26.9821 61.6215 23.3371 61.6215 19.5369C61.6215 15.7367 60.0641 12.0917 57.2913 9.40206C54.5133 6.7174 50.7486 5.20959 46.8236 5.20959C42.8985 5.20959 39.1338 6.7174 36.3558 9.40206L35.403 10.3246C35.1532 10.5668 34.8566 10.759 34.5301 10.8901C34.2035 11.0212 33.8535 11.0887 33.5 11.0887C33.1465 11.0887 32.7965 11.0212 32.4699 10.8901C32.1434 10.759 31.8468 10.5668 31.597 10.3246L30.6442 9.40206C29.2709 8.07062 27.6394 7.01501 25.8435 6.29587C24.0476 5.57673 22.1226 5.20824 20.1791 5.21157Z" fill="url(#paint0_linear_391_581)"/>
<defs>
<linearGradient id="paint0_linear_391_581" x1="33.5" y1="-3.16222e-07" x2="42.9052" y2="57.8249" gradientUnits="userSpaceOnUse">
<stop stop-color="#FD0303"/>
<stop offset="1" stop-color="#341E1E"/>
</linearGradient>
</defs>
</svg>
