<svg width="36" height="35" viewBox="0 0 36 35" fill="none" xmlns="http://www.w3.org/2000/svg">
<path d="M27.0326 34.9997C26.5748 34.9997 26.1143 34.8843 25.6901 34.6522L18.0382 30.4554L10.3093 34.6508C9.83381 34.9144 9.29661 35.0328 8.75947 34.9922C8.22234 34.9517 7.70708 34.7539 7.27293 34.4216C6.83593 34.0937 6.49653 33.6438 6.29371 33.1237C6.0909 32.6037 6.03291 32.0345 6.12641 31.4816L7.58791 22.5974L1.37373 16.2284C0.986304 15.8381 0.712341 15.3417 0.583322 14.7964C0.454304 14.251 0.475466 13.6787 0.644376 13.1453C0.809222 12.6111 1.11502 12.136 1.52674 11.7746C1.93847 11.4132 2.43948 11.1799 2.97242 11.1016L11.5258 9.80534L15.4148 1.67437C15.9048 0.640843 16.8945 0 18.0004 0C19.1063 0 20.0961 0.640843 20.586 1.67437L24.412 9.75716L33.0284 11.1016C33.5613 11.1799 34.0623 11.4132 34.4741 11.7746C34.8858 12.136 35.1916 12.6111 35.3564 13.1453C35.5247 13.6788 35.5455 14.2509 35.4165 14.7961C35.2875 15.3413 35.014 15.8377 34.6271 16.2284L28.4367 22.52L29.8744 31.4831C29.9671 32.0359 29.9087 32.6048 29.7059 33.1247C29.5032 33.6446 29.1643 34.0945 28.7279 34.4231C28.235 34.7963 27.6418 34.9981 27.0326 34.9997ZM3.3266 14.138L9.51558 20.4296C10.1945 21.1215 10.5053 22.1142 10.3457 23.0893L8.88562 31.975L9.65837 33.3589L9.00601 32.067L16.6565 27.8716C17.0703 27.6449 17.5307 27.5263 17.9981 27.5261C18.4656 27.5258 18.9261 27.6439 19.3401 27.8701L26.992 32.067L27.1124 31.975L25.6509 23.0908C25.5723 22.6104 25.6067 22.1173 25.7511 21.6538C25.8954 21.1903 26.1454 20.7702 26.4796 20.4296L32.67 14.138L32.6238 13.9876L24.0704 12.6913C23.6079 12.6207 23.1687 12.4341 22.7905 12.1476C22.4123 11.861 22.1064 11.4831 21.8991 11.0461L18.0732 2.96335C18.062 2.94 18.0494 2.91664 17.9976 2.91664L14.0961 11.0461C13.8894 11.483 13.5841 11.861 13.2064 12.1476C12.8287 12.4341 12.3898 12.6207 11.9276 12.6913L3.37139 13.9876L2.34806 15.1817L3.3266 14.138Z" fill="url(#paint0_linear_293_1271)"/>
<defs>
<linearGradient id="paint0_linear_293_1271" x1="18" y1="-1.8759e-07" x2="24.2889" y2="34.0488" gradientUnits="userSpaceOnUse">
<stop stop-color="#FD0303"/>
<stop offset="1" stop-color="#341E1E"/>
</linearGradient>
</defs>
</svg>
