<svg width="28" height="35" viewBox="0 0 28 35" fill="none" xmlns="http://www.w3.org/2000/svg">
<path d="M19.8417 8.83138C19.8417 9.15782 19.8195 9.48426 19.7789 9.80698C19.7974 9.67715 19.8158 9.54361 19.8306 9.41378C19.7419 10.0592 19.572 10.6861 19.3244 11.2871C19.3724 11.1684 19.4242 11.0497 19.4722 10.931C19.2246 11.5171 18.9069 12.0661 18.5189 12.5706L18.7517 12.2701C18.3674 12.7672 17.9203 13.216 17.4252 13.6018L17.7245 13.3681C17.222 13.7539 16.6751 14.0766 16.0913 14.3252C16.2095 14.277 16.3278 14.225 16.446 14.1768C15.8474 14.4253 15.223 14.596 14.5801 14.685C14.7094 14.6665 14.8424 14.6479 14.9717 14.6331C14.3251 14.7184 13.6748 14.7184 13.0282 14.6331C13.1575 14.6516 13.2905 14.6702 13.4198 14.685C12.7769 14.596 12.1525 14.4253 11.5539 14.1768C11.6721 14.225 11.7904 14.277 11.9086 14.3252C11.3248 14.0766 10.7779 13.7576 10.2754 13.3681L10.5747 13.6018C10.0796 13.216 9.6325 12.7672 9.24822 12.2701L9.48101 12.5706C9.09673 12.0661 8.77527 11.5171 8.5277 10.931C8.57574 11.0497 8.62747 11.1684 8.6755 11.2871C8.42794 10.6861 8.25797 10.0592 8.16929 9.41378C8.18777 9.54361 8.20624 9.67715 8.22102 9.80698C8.13604 9.15782 8.13604 8.50494 8.22102 7.85578C8.20255 7.98561 8.18407 8.11915 8.16929 8.24899C8.25797 7.60353 8.42794 6.97662 8.6755 6.37568C8.62747 6.49438 8.57574 6.61309 8.5277 6.73179C8.77527 6.14569 9.09303 5.59668 9.48101 5.09218L9.24822 5.39265C9.6325 4.89558 10.0796 4.44672 10.5747 4.06093L10.2754 4.29463C10.7779 3.90884 11.3248 3.58612 11.9086 3.33758C11.7904 3.3858 11.6721 3.43773 11.5539 3.48596C12.1525 3.23742 12.7769 3.06678 13.4198 2.97775C13.2905 2.9963 13.1575 3.01485 13.0282 3.02969C13.6748 2.94437 14.3251 2.94437 14.9717 3.02969C14.8424 3.01114 14.7094 2.99259 14.5801 2.97775C15.223 3.06678 15.8474 3.23742 16.446 3.48596C16.3278 3.43773 16.2095 3.3858 16.0913 3.33758C16.6751 3.58612 17.222 3.90513 17.7245 4.29463L17.4252 4.06093C17.9203 4.44672 18.3674 4.89558 18.7517 5.39265L18.5189 5.09218C18.9032 5.59668 19.2246 6.14569 19.4722 6.73179C19.4242 6.61309 19.3724 6.49438 19.3244 6.37568C19.572 6.97662 19.7419 7.60353 19.8306 8.24899C19.8121 8.11915 19.7937 7.98561 19.7789 7.85578C19.8195 8.1785 19.838 8.50494 19.8417 8.83138C19.8454 9.60667 20.5179 10.3523 21.3197 10.3152C22.1178 10.2781 22.8014 9.66231 22.7977 8.83138C22.7903 7.05452 22.2582 5.23685 21.2162 3.79014C20.9354 3.40064 20.6361 3.01856 20.3036 2.67357C19.9673 2.32488 19.5978 2.02441 19.2136 1.73135C18.5152 1.19718 17.7356 0.803973 16.9079 0.499793C13.5713 -0.728059 9.54751 0.36625 7.28989 3.12613C6.97951 3.50451 6.68391 3.89772 6.43266 4.3206C6.1814 4.73978 5.98556 5.18492 5.80451 5.63748C5.46457 6.47583 5.29091 7.36612 5.2207 8.26753C5.08399 10.0333 5.54217 11.8769 6.45852 13.3904C7.34162 14.8519 8.6755 16.1058 10.2348 16.8143C10.693 17.022 11.1622 17.2149 11.65 17.3522C12.134 17.4857 12.6254 17.5599 13.1242 17.6192C14.0332 17.7268 14.9606 17.6526 15.8585 17.4709C19.269 16.7735 22.1252 13.8244 22.6536 10.3634C22.7312 9.85892 22.7903 9.35442 22.7903 8.84251C22.794 8.06722 22.1067 7.3216 21.3123 7.3587C20.5142 7.38467 19.8417 8.00045 19.8417 8.83138ZM24.7449 32.027H5.78604C4.94728 32.027 4.10852 32.0344 3.26976 32.027C3.17739 32.027 3.08501 32.0196 2.99633 32.0085C3.12566 32.027 3.25867 32.0456 3.388 32.0604C3.2402 32.0382 3.09979 31.9973 2.96308 31.9417C3.08132 31.9899 3.19956 32.0419 3.31779 32.0901C3.17 32.027 3.03328 31.9454 2.90396 31.8453L3.20325 32.079C3.0924 31.9862 2.98894 31.8861 2.90026 31.7748L3.13305 32.0752C3.03328 31.9454 2.95569 31.8082 2.88918 31.6598C2.93721 31.7785 2.98894 31.8972 3.03698 32.0159C2.98155 31.8786 2.9446 31.734 2.91874 31.5893C2.93721 31.7191 2.95569 31.8527 2.97047 31.9825C2.91135 31.5337 2.95199 31.0588 2.95199 30.6063V29.0186C2.95199 28.6217 2.97416 28.2285 3.02589 27.8353C3.00742 27.9651 2.98894 28.0986 2.97416 28.2285C3.07762 27.468 3.27715 26.7224 3.57644 26.0139C3.52841 26.1326 3.47668 26.2513 3.42864 26.37C3.71685 25.6949 4.08635 25.0605 4.53344 24.4781L4.30066 24.7786C4.74775 24.2036 5.26135 23.6843 5.83776 23.2355L5.53847 23.4692C6.11858 23.0203 6.75042 22.6494 7.42291 22.36C7.30467 22.4082 7.18643 22.4602 7.06819 22.5084C7.77393 22.2116 8.51292 22.0076 9.27409 21.9037C9.14476 21.9223 9.01174 21.9408 8.88242 21.9557C9.42928 21.8852 9.97244 21.8815 10.523 21.8815H17.2848C17.8945 21.8815 18.5004 21.8778 19.1101 21.9557C18.9808 21.9371 18.8478 21.9186 18.7184 21.9037C19.4759 22.0076 20.2186 22.2079 20.9243 22.5084C20.8061 22.4602 20.6878 22.4082 20.5696 22.36C21.2421 22.6494 21.8739 23.0203 22.454 23.4692L22.1548 23.2355C22.7275 23.6843 23.2448 24.1999 23.6919 24.7786L23.4591 24.4781C23.9062 25.0605 24.2757 25.6949 24.5639 26.37C24.5158 26.2513 24.4641 26.1326 24.4161 26.0139C24.7117 26.7224 24.9149 27.4643 25.0184 28.2285C24.9999 28.0986 24.9814 27.9651 24.9666 27.8353C25.0368 28.3954 25.0405 28.9518 25.0405 29.5157V31.3519C25.0405 31.5633 25.0479 31.7748 25.0221 31.9825C25.0405 31.8527 25.059 31.7191 25.0738 31.5893C25.0516 31.7377 25.011 31.8786 24.9555 32.0159C25.0036 31.8972 25.0553 31.7785 25.1033 31.6598C25.0405 31.8082 24.9592 31.9454 24.8595 32.0752L25.0923 31.7748C24.9999 31.8861 24.9001 31.9899 24.7893 32.079L25.0886 31.8453C24.9592 31.9454 24.8225 32.0233 24.6747 32.0901C24.793 32.0419 24.9112 31.9899 25.0294 31.9417C24.8927 31.9973 24.7486 32.0344 24.6045 32.0604C24.7338 32.0419 24.8669 32.0233 24.9962 32.0085C24.9149 32.0196 24.8299 32.0233 24.7449 32.027C24.3643 32.0307 23.9727 32.1902 23.6993 32.461C23.4443 32.717 23.2485 33.1399 23.2669 33.5108C23.3039 34.3047 23.9173 35.0058 24.7449 34.9946C26.1823 34.9724 27.446 34.0302 27.8672 32.6465C28.0335 32.0975 27.9965 31.5077 27.9965 30.9438C27.9965 29.6529 28.0371 28.3731 27.8154 27.0934C27.4903 25.2201 26.5518 23.458 25.2659 22.0744C23.9801 20.6907 22.2508 19.6743 20.4218 19.2218C19.3724 18.9621 18.3157 18.9213 17.2441 18.9213H10.6893C9.59185 18.9213 8.50184 18.9732 7.43399 19.2588C5.61976 19.7411 3.91268 20.7686 2.6527 22.1634C1.38163 23.5693 0.461582 25.335 0.16229 27.2195C-0.0372388 28.4844 0.0034058 29.7531 0.0034058 31.0292C0.0034058 31.6153 -0.0298488 32.2273 0.180764 32.7875C0.454192 33.5071 0.890199 34.0747 1.52943 34.5013C2.02825 34.8314 2.66009 34.9909 3.25129 34.9984C3.53949 35.0021 3.8277 34.9984 4.11591 34.9984H24.7486C25.5209 34.9984 26.2636 34.3158 26.2266 33.5145C26.1897 32.7059 25.5763 32.027 24.7449 32.027Z" fill="url(#paint0_linear_293_1278)"/>
<defs>
<linearGradient id="paint0_linear_293_1278" x1="14" y1="-1.8759e-07" x2="21.718" y2="33.4285" gradientUnits="userSpaceOnUse">
<stop stop-color="#FD0303"/>
<stop offset="1" stop-color="#341E1E"/>
</linearGradient>
</defs>
</svg>
