<svg width="61" height="60" viewBox="0 0 61 60" fill="none" xmlns="http://www.w3.org/2000/svg">
<path d="M45.9845 59.9994C45.1997 59.9994 44.4102 59.8017 43.683 59.4038L30.5655 52.2092L17.316 59.4013C16.5008 59.8533 15.5799 60.0562 14.6591 59.9866C13.7383 59.9171 12.855 59.5781 12.1107 59.0084C11.3616 58.4463 10.7798 57.6751 10.4321 56.7836C10.0844 55.892 9.98499 54.9163 10.1453 53.9685L12.6507 38.7384L1.99782 27.8201C1.33366 27.151 0.864013 26.3001 0.642838 25.3652C0.421664 24.4302 0.457942 23.4492 0.747503 22.5348C1.03009 21.619 1.55431 20.8046 2.26013 20.185C2.96595 19.5654 3.82483 19.1656 4.73843 19.0314L19.4014 16.8091L26.0682 2.87034C26.9081 1.09859 28.6048 0 30.5007 0C32.3966 0 34.0933 1.09859 34.9332 2.87034L41.492 16.7266L56.263 19.0314C57.1766 19.1656 58.0355 19.5654 58.7413 20.185C59.4471 20.8046 59.9713 21.619 60.2539 22.5348C60.5423 23.4493 60.578 24.4301 60.3569 25.3647C60.1358 26.2994 59.6668 27.1503 59.0036 27.8201L48.3915 38.6057L50.8561 53.971C51.015 54.9187 50.9149 55.894 50.5673 56.7852C50.2197 57.6765 49.6387 58.4478 48.8907 59.011C48.0456 59.6508 47.0287 59.9967 45.9845 59.9994ZM5.34559 24.2365L15.9553 35.0222C17.1192 36.2084 17.652 37.91 17.3784 39.5817L14.8754 54.8143L16.2001 57.1866L15.0817 54.972L28.1969 47.7798C28.9062 47.3912 29.6955 47.188 30.4968 47.1875C31.2981 47.1871 32.0876 47.3895 32.7973 47.7773L45.9149 54.972L46.1213 54.8143L43.6158 39.5842C43.4812 38.7607 43.5401 37.9154 43.7875 37.1208C44.035 36.3262 44.4636 35.6061 45.0365 35.0222L55.6486 24.2365L55.5694 23.9788L40.9064 21.7566C40.1135 21.6355 39.3605 21.3156 38.7122 20.8244C38.0639 20.3332 37.5396 19.6853 37.1842 18.9363L30.6255 5.08003C30.6063 5.03999 30.5847 4.99995 30.4959 4.99995L23.8076 18.9363C23.4533 19.6852 22.9299 20.3331 22.2824 20.8244C21.6348 21.3157 20.8825 21.6356 20.0902 21.7566L5.42239 23.9788L3.66811 26.0258L5.34559 24.2365Z" fill="url(#paint0_linear_391_578)"/>
<defs>
<linearGradient id="paint0_linear_391_578" x1="30.5" y1="-3.21582e-07" x2="41.2811" y2="58.3694" gradientUnits="userSpaceOnUse">
<stop stop-color="#FD0303"/>
<stop offset="1" stop-color="#341E1E"/>
</linearGradient>
</defs>
</svg>
