<svg width="51" height="60" viewBox="0 0 51 60" fill="none" xmlns="http://www.w3.org/2000/svg">
<path d="M36.1402 15.1395C36.1402 15.6991 36.0999 16.2587 36.0258 16.812C36.0595 16.5894 36.0931 16.3605 36.12 16.1379C35.9585 17.2444 35.6489 18.3191 35.198 19.3493C35.2855 19.1458 35.3797 18.9423 35.4672 18.7388C35.0163 19.7436 34.4375 20.6847 33.7309 21.5496L34.1549 21.0345C33.4549 21.8866 32.6406 22.6561 31.7387 23.3174L32.2839 22.9168C31.3686 23.5781 30.3725 24.1314 29.3092 24.5575C29.5245 24.4748 29.7399 24.3858 29.9553 24.3031C28.865 24.7292 27.7276 25.0217 26.5565 25.1743C26.7921 25.1425 27.0344 25.1107 27.2699 25.0853C26.0922 25.2315 24.9077 25.2315 23.7299 25.0853C23.9654 25.1171 24.2077 25.1489 24.4433 25.1743C23.2722 25.0217 22.1349 24.7292 21.0446 24.3031C21.2599 24.3858 21.4753 24.4748 21.6907 24.5575C20.6273 24.1314 19.6312 23.5845 18.716 22.9168L19.2611 23.3174C18.3593 22.6561 17.5449 21.8866 16.845 21.0345L17.269 21.5496C16.569 20.6847 15.9835 19.7436 15.5326 18.7388C15.6201 18.9423 15.7143 19.1458 15.8018 19.3493C15.3509 18.3191 15.0413 17.2444 14.8798 16.1379C14.9134 16.3605 14.9471 16.5894 14.974 16.812C14.8192 15.6991 14.8192 14.5799 14.974 13.467C14.9404 13.6896 14.9067 13.9185 14.8798 14.1411C15.0413 13.0346 15.3509 11.9599 15.8018 10.9297C15.7143 11.1332 15.6201 11.3367 15.5326 11.5402C15.9835 10.5355 16.5623 9.5943 17.269 8.72945L16.845 9.24455C17.5449 8.39242 18.3593 7.62296 19.2611 6.9616L18.716 7.36223C19.6312 6.70088 20.6273 6.14763 21.6907 5.72156C21.4753 5.80423 21.2599 5.89326 21.0446 5.97593C22.1349 5.54986 23.2722 5.25734 24.4433 5.10472C24.2077 5.13652 23.9654 5.16831 23.7299 5.19375C24.9077 5.04749 26.0922 5.04749 27.2699 5.19375C27.0344 5.16195 26.7921 5.13016 26.5565 5.10472C27.7276 5.25734 28.865 5.54986 29.9553 5.97593C29.7399 5.89326 29.5245 5.80423 29.3092 5.72156C30.3725 6.14763 31.3686 6.69452 32.2839 7.36223L31.7387 6.9616C32.6406 7.62296 33.4549 8.39242 34.1549 9.24455L33.7309 8.72945C34.4308 9.5943 35.0163 10.5355 35.4672 11.5402C35.3797 11.3367 35.2855 11.1332 35.198 10.9297C35.6489 11.9599 35.9585 13.0346 36.12 14.1411C36.0864 13.9185 36.0527 13.6896 36.0258 13.467C36.0999 14.0203 36.1335 14.5799 36.1402 15.1395C36.147 16.4686 37.3718 17.7468 38.8323 17.6832C40.286 17.6196 41.5311 16.564 41.5243 15.1395C41.5109 12.0935 40.5417 8.97746 38.6438 6.49738C38.1324 5.82967 37.5872 5.17467 36.9815 4.58327C36.3691 3.9855 35.696 3.47041 34.9961 2.96804C33.7241 2.05231 32.3041 1.37824 30.7965 0.856787C24.7192 -1.2481 17.3901 0.627857 13.278 5.35909C12.7127 6.00772 12.1743 6.6818 11.7166 7.40674C11.259 8.12533 10.9023 8.88843 10.5725 9.66425C9.95333 11.1014 9.63701 12.6276 9.50914 14.1729C9.26012 17.1999 10.0947 20.3604 11.7637 22.9549C13.3722 25.4605 15.8018 27.6099 18.6419 28.8245C19.4765 29.1806 20.3312 29.5113 21.2196 29.7465C22.1012 29.9755 22.9963 30.1027 23.9049 30.2044C25.5605 30.3888 27.2497 30.2616 28.8852 29.95C35.0971 28.7545 40.2995 23.699 41.2619 17.7659C41.4032 16.901 41.5109 16.0362 41.5109 15.1586C41.5176 13.8295 40.2658 12.5513 38.8188 12.6149C37.3651 12.6594 36.1402 13.7151 36.1402 15.1395ZM45.0711 54.9035H10.5388C9.01111 54.9035 7.48337 54.9162 5.95563 54.9035C5.78738 54.9035 5.61913 54.8908 5.4576 54.8717C5.69316 54.9035 5.93544 54.9353 6.171 54.9607C5.90179 54.9225 5.64605 54.8526 5.39703 54.7572C5.6124 54.8399 5.82776 54.9289 6.04312 55.0116C5.77392 54.9035 5.52491 54.7636 5.28935 54.5919L5.83449 54.9925C5.63259 54.8335 5.44414 54.6618 5.28262 54.471L5.70662 54.9861C5.5249 54.7636 5.38357 54.5283 5.26243 54.2739C5.34992 54.4774 5.44414 54.6809 5.53164 54.8844C5.43068 54.6491 5.36338 54.4011 5.31627 54.1531C5.34992 54.3757 5.38357 54.6046 5.41049 54.8272C5.30281 54.0577 5.37684 53.2437 5.37684 52.4679V49.7462C5.37684 49.0657 5.41722 48.3917 5.51145 47.7176C5.47779 47.9402 5.44414 48.1691 5.41722 48.3917C5.60567 47.088 5.96909 45.8098 6.51423 44.5952C6.42674 44.7987 6.33252 45.0022 6.24503 45.2057C6.76998 44.0483 7.44299 42.9609 8.25734 41.9625L7.83334 42.4776C8.64768 41.492 9.58317 40.6017 10.6331 39.8322L10.0879 40.2328C11.1446 39.4634 12.2954 38.8275 13.5203 38.3314C13.3049 38.4141 13.0896 38.5031 12.8742 38.5858C14.1597 38.0771 15.5057 37.7273 16.8921 37.5493C16.6565 37.5811 16.4142 37.6129 16.1787 37.6383C17.1748 37.5175 18.1641 37.5111 19.1669 37.5111H31.483C32.5935 37.5111 33.6972 37.5047 34.8077 37.6383C34.5721 37.6065 34.3298 37.5747 34.0943 37.5493C35.474 37.7273 36.8267 38.0707 38.1122 38.5858C37.8968 38.5031 37.6814 38.4141 37.4661 38.3314C38.691 38.8275 39.8418 39.4634 40.8984 40.2328L40.3533 39.8322C41.3965 40.6017 42.3387 41.4856 43.153 42.4776L42.729 41.9625C43.5434 42.9609 44.2164 44.0483 44.7413 45.2057C44.6538 45.0022 44.5596 44.7987 44.4721 44.5952C45.0105 45.8098 45.3807 47.0817 45.5691 48.3917C45.5355 48.1691 45.5018 47.9402 45.4749 47.7176C45.6028 48.6778 45.6095 49.6317 45.6095 50.5983V53.7461C45.6095 54.1086 45.623 54.471 45.5759 54.8272C45.6095 54.6046 45.6432 54.3757 45.6701 54.1531C45.6297 54.4075 45.5557 54.6491 45.4547 54.8844C45.5422 54.6809 45.6364 54.4774 45.7239 54.2739C45.6095 54.5283 45.4615 54.7636 45.2798 54.9861L45.7037 54.471C45.5355 54.6618 45.3538 54.8399 45.1519 54.9925L45.697 54.5919C45.4615 54.7636 45.2124 54.8971 44.9432 55.0116C45.1586 54.9289 45.374 54.8399 45.5893 54.7572C45.3403 54.8526 45.0778 54.9162 44.8154 54.9607C45.0509 54.9289 45.2932 54.8971 45.5288 54.8717C45.3807 54.8908 45.2259 54.8971 45.0711 54.9035C44.3779 54.9098 43.6645 55.1833 43.1665 55.6475C42.7021 56.0863 42.3454 56.8112 42.3791 57.4471C42.4464 58.808 43.5636 60.0099 45.0711 59.9908C47.6891 59.9527 49.9908 58.3374 50.7581 55.9655C51.0609 55.0243 50.9936 54.0132 50.9936 53.0466C50.9936 50.8336 51.0677 48.6397 50.6638 46.4458C50.0716 43.2344 48.3621 40.2138 46.0201 37.8418C43.678 35.4698 40.5283 33.7274 37.1969 32.9516C35.2855 32.5064 33.3607 32.4365 31.409 32.4365H19.4697C17.4709 32.4365 15.4855 32.5255 13.5405 33.0152C10.236 33.8419 7.12667 35.6034 4.8317 37.9944C2.51654 40.4045 0.840739 43.4315 0.295599 46.662C-0.0678277 48.8305 0.00620342 51.0053 0.00620342 53.1928C0.00620342 54.1976 -0.0543675 55.2469 0.32925 56.2071C0.827279 57.4408 1.62143 58.4137 2.78574 59.145C3.69431 59.711 4.84516 59.9845 5.92198 59.9972C6.44693 60.0035 6.97188 59.9972 7.49683 59.9972H45.0778C46.4844 59.9972 47.8372 58.8271 47.7699 57.4535C47.7026 56.0672 46.5854 54.9035 45.0711 54.9035Z" fill="url(#paint0_linear_391_585)"/>
<defs>
<linearGradient id="paint0_linear_391_585" x1="25.5" y1="-3.21582e-07" x2="38.0249" y2="57.6391" gradientUnits="userSpaceOnUse">
<stop stop-color="#FD0303"/>
<stop offset="1" stop-color="#341E1E"/>
</linearGradient>
</defs>
</svg>
