<svg width="61" height="61" viewBox="0 0 61 61" fill="none" xmlns="http://www.w3.org/2000/svg">
<path d="M57.95 36.6C57.1411 36.6 56.3653 36.9213 55.7933 37.4933C55.2213 38.0653 54.9 38.8411 54.9 39.65V51.85C54.9 52.6589 54.5787 53.4347 54.0067 54.0067C53.4347 54.5787 52.6589 54.9 51.85 54.9H9.15C8.34109 54.9 7.56531 54.5787 6.99332 54.0067C6.42134 53.4347 6.1 52.6589 6.1 51.85V39.65C6.1 38.8411 5.77866 38.0653 5.20668 37.4933C4.63469 36.9213 3.85891 36.6 3.05 36.6C2.24109 36.6 1.46531 36.9213 0.893324 37.4933C0.321338 38.0653 0 38.8411 0 39.65V51.85C0 54.2767 0.964015 56.6041 2.67997 58.32C4.39593 60.036 6.72327 61 9.15 61H51.85C54.2767 61 56.6041 60.036 58.32 58.32C60.036 56.6041 61 54.2767 61 51.85V39.65C61 38.8411 60.6787 38.0653 60.1067 37.4933C59.5347 36.9213 58.7589 36.6 57.95 36.6ZM28.3345 41.8155C28.6246 42.0932 28.9666 42.3108 29.341 42.456C29.7061 42.6174 30.1008 42.7007 30.5 42.7007C30.8992 42.7007 31.2939 42.6174 31.659 42.456C32.0334 42.3108 32.3754 42.0932 32.6655 41.8155L44.8655 29.6155C45.4398 29.0412 45.7625 28.2622 45.7625 27.45C45.7625 26.6378 45.4398 25.8588 44.8655 25.2845C44.2912 24.7102 43.5122 24.3875 42.7 24.3875C41.8878 24.3875 41.1088 24.7102 40.5345 25.2845L33.55 32.2995V3.05C33.55 2.24109 33.2287 1.46531 32.6567 0.893324C32.0847 0.321338 31.3089 0 30.5 0C29.6911 0 28.9153 0.321338 28.3433 0.893324C27.7713 1.46531 27.45 2.24109 27.45 3.05V32.2995L20.4655 25.2845C20.1811 25.0001 19.8435 24.7745 19.472 24.6206C19.1004 24.4667 18.7022 24.3875 18.3 24.3875C17.8978 24.3875 17.4996 24.4667 17.128 24.6206C16.7565 24.7745 16.4189 25.0001 16.1345 25.2845C15.8501 25.5689 15.6245 25.9065 15.4706 26.278C15.3167 26.6496 15.2375 27.0478 15.2375 27.45C15.2375 27.8522 15.3167 28.2504 15.4706 28.622C15.6245 28.9935 15.8501 29.3311 16.1345 29.6155L28.3345 41.8155Z" fill="url(#paint0_linear_391_588)"/>
<defs>
<linearGradient id="paint0_linear_391_588" x1="30.5" y1="-3.26942e-07" x2="41.4607" y2="59.3422" gradientUnits="userSpaceOnUse">
<stop stop-color="#FD0303"/>
<stop offset="1" stop-color="#341E1E"/>
</linearGradient>
</defs>
</svg>
