<svg width="35" height="35" viewBox="0 0 35 35" fill="none" xmlns="http://www.w3.org/2000/svg">
<path d="M33.25 21C32.7859 21 32.3408 21.1844 32.0126 21.5126C31.6844 21.8408 31.5 22.2859 31.5 22.75V29.75C31.5 30.2141 31.3156 30.6593 30.9874 30.9874C30.6593 31.3156 30.2141 31.5 29.75 31.5H5.25C4.78587 31.5 4.34075 31.3156 4.01256 30.9874C3.68437 30.6593 3.5 30.2141 3.5 29.75V22.75C3.5 22.2859 3.31563 21.8408 2.98744 21.5126C2.65925 21.1844 2.21413 21 1.75 21C1.28587 21 0.840752 21.1844 0.512563 21.5126C0.184374 21.8408 0 22.2859 0 22.75V29.75C0 31.1424 0.553124 32.4777 1.53769 33.4623C2.52226 34.4469 3.85761 35 5.25 35H29.75C31.1424 35 32.4777 34.4469 33.4623 33.4623C34.4469 32.4777 35 31.1424 35 29.75V22.75C35 22.2859 34.8156 21.8408 34.4874 21.5126C34.1592 21.1844 33.7141 21 33.25 21ZM16.2575 23.9925C16.4239 24.1518 16.6202 24.2767 16.835 24.36C17.0445 24.4526 17.271 24.5004 17.5 24.5004C17.729 24.5004 17.9555 24.4526 18.165 24.36C18.3798 24.2767 18.5761 24.1518 18.7425 23.9925L25.7425 16.9925C26.072 16.663 26.2572 16.216 26.2572 15.75C26.2572 15.284 26.072 14.837 25.7425 14.5075C25.413 14.178 24.966 13.9928 24.5 13.9928C24.034 13.9928 23.587 14.178 23.2575 14.5075L19.25 18.5325V1.75C19.25 1.28587 19.0656 0.840752 18.7374 0.512563C18.4092 0.184374 17.9641 0 17.5 0C17.0359 0 16.5908 0.184374 16.2626 0.512563C15.9344 0.840752 15.75 1.28587 15.75 1.75V18.5325L11.7425 14.5075C11.5793 14.3443 11.3856 14.2149 11.1724 14.1266C10.9592 14.0383 10.7308 13.9928 10.5 13.9928C10.2692 13.9928 10.0408 14.0383 9.82756 14.1266C9.61438 14.2149 9.42067 14.3443 9.2575 14.5075C9.09433 14.6707 8.9649 14.8644 8.8766 15.0776C8.78829 15.2908 8.74284 15.5192 8.74284 15.75C8.74284 15.9808 8.78829 16.2092 8.8766 16.4224C8.9649 16.6356 9.09433 16.8293 9.2575 16.9925L16.2575 23.9925Z" fill="url(#paint0_linear_293_1281)"/>
<defs>
<linearGradient id="paint0_linear_293_1281" x1="17.5" y1="-1.8759e-07" x2="23.7889" y2="34.0488" gradientUnits="userSpaceOnUse">
<stop stop-color="#FD0303"/>
<stop offset="1" stop-color="#341E1E"/>
</linearGradient>
</defs>
</svg>
