<svg width="258" height="256" viewBox="0 0 258 256" fill="none" xmlns="http://www.w3.org/2000/svg">
<path d="M45.1176 0.341919C44.7463 0.341919 44.3728 0.34852 44.0027 0.35842C35.1131 0.597678 26.6601 3.71794 19.6312 8.74621C0.886511 22.1546 -8.12996 50.1258 9.43615 74.0445C23.295 92.9118 17.2553 117.824 2.91476 131.744L10.071 139.118C27.7777 121.931 34.9247 91.3981 17.709 67.9596C3.31404 48.3597 10.9141 27.6251 25.6039 17.1175C32.9492 11.8626 41.9524 9.41174 51.0216 11.2048C59.7283 12.9242 68.7805 18.5255 76.7837 30.4555L43.8994 49.5164L57.2695 72.7712C29.8648 107.941 24.8724 157.719 48.4821 198.795C79.5056 252.77 148.174 271.288 201.867 240.151C255.562 209.012 273.945 140.016 242.921 86.0409C219.353 45.037 174.044 24.5114 130.092 30.6617L116.67 7.32001L85.6744 25.282C76.3839 11.2059 64.7745 3.43853 53.0125 1.11525C50.4124 0.601392 47.7679 0.342394 45.1176 0.341919ZM138.553 44.9617C182.436 44.9617 218.087 80.3537 218.087 124.302C218.087 168.248 182.436 203.969 138.553 203.969C94.6705 203.969 59.3285 168.248 59.3285 124.302C59.3285 80.3554 94.6711 44.9617 138.553 44.9617ZM133.559 58.815V107.321C126.283 109.627 120.841 116.556 120.841 124.492C120.841 134.241 129.059 142.161 138.794 142.161C148.032 142.161 155.616 135.028 156.369 125.97L198.4 95.7873L192.411 87.4336L153.811 115.158C151.557 111.433 148.021 108.562 143.822 107.268V58.8144L133.559 58.815ZM110.389 65.0379L101.498 70.1773L109.376 83.8414L118.268 78.6855L110.389 65.0379ZM166.993 65.0379L159.115 78.685L168.005 83.8414L175.884 70.1773L166.993 65.0379ZM84.5419 87.1597L79.41 96.0623L93.0361 103.952L98.1685 95.0481L84.5408 87.1586L84.5419 87.1597ZM138.793 116.791C142.983 116.791 146.174 120.298 146.174 124.492C146.174 128.686 142.983 131.882 138.794 131.882C134.606 131.882 131.105 128.687 131.105 124.491C131.105 120.297 134.604 116.791 138.793 116.791ZM73.1968 119.266V129.545H88.9351V119.266L73.1968 119.266ZM188.429 119.266V129.545H204.184V119.266L188.429 119.266ZM93.0366 144.876L79.4106 152.748L84.5413 161.652L98.1685 153.762L93.0366 144.876ZM184.344 144.876L179.213 153.762L192.84 161.652L197.972 152.748L184.344 144.876ZM109.376 164.986L101.498 178.633L110.389 183.773L118.267 170.125L109.376 164.986ZM168.004 164.986L159.115 170.125L166.993 183.773L175.883 178.633L168.004 164.986ZM133.559 174.233V189.995H143.823V174.234L133.559 174.233Z" fill="url(#paint0_linear_391_540)"/>
<defs>
<linearGradient id="paint0_linear_391_540" x1="129" y1="0.341918" x2="174.295" y2="248.531" gradientUnits="userSpaceOnUse">
<stop stop-color="#FD0303"/>
<stop offset="1" stop-color="#341E1E"/>
</linearGradient>
</defs>
</svg>
