<svg width="82" height="80" viewBox="0 0 82 80" fill="none" xmlns="http://www.w3.org/2000/svg">
<path d="M14.3397 0C14.2217 0 14.103 0.00207141 13.9853 0.00517833C11.16 0.0802625 8.47336 1.05946 6.23938 2.63744C0.281759 6.84526 -2.58394 15.6232 2.99909 23.1294C7.40385 29.0503 5.48425 36.8684 0.926397 41.2367L3.20087 43.5507C8.82858 38.1572 11.1001 28.5753 5.62843 21.2198C1.0533 15.069 3.46882 8.56201 8.13769 5.26452C10.4722 3.61543 13.3337 2.84629 16.2162 3.40899C18.9834 3.94856 21.8605 5.70639 24.4041 9.45024L13.9525 15.4319L18.2019 22.7298C9.4919 33.7668 7.90518 49.3881 15.409 62.2786C25.2692 79.217 47.0941 85.0285 64.1594 75.2569C81.225 65.4849 87.0677 43.8326 77.2076 26.8941C69.717 14.0262 55.3164 7.58488 41.3471 9.51497L37.0813 2.18987L27.2298 7.8267C24.277 3.40934 20.5873 0.971779 16.8489 0.242686C16.0225 0.081428 15.1822 0.000149034 14.3399 0H14.3397ZM44.0363 14.0026C57.9834 14.0026 69.3144 25.1093 69.3144 38.9012C69.3144 52.6925 57.9834 63.9023 44.0362 63.9023C30.0891 63.9023 18.8563 52.6923 18.8563 38.9012C18.8563 25.1099 30.0891 14.0026 44.0362 14.0026H44.0363ZM42.4489 18.35V33.5723C40.1364 34.2958 38.4069 36.4703 38.4069 38.9607C38.4069 42.0204 41.0186 44.5057 44.1128 44.5057C47.0488 44.5057 49.4595 42.2674 49.6986 39.4245L63.0574 29.9527L61.1539 27.3311L48.8855 36.0318C48.1693 34.8625 47.0454 33.9617 45.7109 33.5557V18.3499H42.4487L42.4489 18.35ZM35.0849 20.3029L32.2592 21.9158L34.763 26.2038L37.5891 24.5858L35.0851 20.3031L35.0849 20.3029ZM53.0752 20.3029L50.5714 24.5857L53.397 26.2038L55.901 21.9158L53.0752 20.3031V20.3029ZM26.8699 27.2452L25.2388 30.039L29.5696 32.5149L31.2008 29.7207L26.8696 27.2448L26.8699 27.2452ZM44.1126 36.5442C45.4441 36.5442 46.4583 37.6446 46.4583 38.9607C46.4583 40.277 45.4441 41.28 44.113 41.28C42.7816 41.28 41.6692 40.2772 41.6692 38.9606C41.6692 37.6442 42.7815 36.5441 44.113 36.5441L44.1126 36.5442ZM23.2641 37.321V40.5465H28.2662V37.3208H23.2641V37.321ZM59.8884 37.321V40.5465H64.8957V37.3208H59.8885L59.8884 37.321ZM29.5698 45.3577L25.239 47.8282L26.8697 50.6222L31.2008 48.1464L29.5698 45.3577ZM58.5898 45.3577L56.9591 48.1464L61.2902 50.6222L62.9213 47.8281L58.5898 45.3577ZM34.7628 51.6688L32.2592 55.9515L35.0849 57.5643L37.5887 53.2813L34.7627 51.6684L34.7628 51.6688ZM53.3968 51.6688L50.5714 53.2814L53.0752 57.5643L55.9008 55.9513L53.397 51.6684L53.3968 51.6688ZM42.4491 54.5706V59.5169H45.711V54.5708H42.4489L42.4491 54.5706Z" fill="url(#paint0_linear_293_1360)"/>
<defs>
<linearGradient id="paint0_linear_293_1360" x1="41" y1="-4.28776e-07" x2="55.0465" y2="77.9498" gradientUnits="userSpaceOnUse">
<stop stop-color="#FD0303"/>
<stop offset="1" stop-color="#341E1E"/>
</linearGradient>
</defs>
</svg>
